<svg width="26" height="26" viewBox="0 0 26 26" fill="none" xmlns="http://www.w3.org/2000/svg">
<g clip-path="url(#clip0)">
<path d="M16.8717 4.11975C17.6998 3.1188 18.2818 1.75934 18.2526 0.374632C18.2477 0.142105 18.0356 -0.0305513 17.8056 0.00453855C16.5906 0.190195 15.2324 0.951152 14.3916 1.93544C13.6168 2.83138 12.9291 4.2237 12.9808 5.60337C12.9885 5.81127 13.1642 5.97697 13.3721 5.97108C14.7132 5.93315 16.0372 5.13009 16.8717 4.11975Z" fill="#D6D6D8"/>
<path d="M14.0271 5.60336C13.9469 3.4644 15.5607 0.966063 18.1801 0.160622C18.0979 0.0475829 17.9558 -0.0183819 17.8057 0.00452044C16.5906 0.190177 15.2324 0.951134 14.3916 1.93543C13.6168 2.83136 12.929 4.22373 12.9808 5.60336C12.9885 5.81125 13.1642 5.97695 13.3721 5.97106C13.6322 5.9637 13.8915 5.92729 14.1468 5.86645C14.0765 5.79983 14.031 5.70685 14.0271 5.60336Z" fill="#C2C2C4"/>
<path d="M23.3442 18.9264C22.5023 18.5025 20.1789 17.0398 20.1501 13.7958C20.1256 11.1403 21.8877 9.59615 22.6373 9.057C22.8152 8.92898 22.8543 8.67848 22.719 8.50598C22.0962 7.71201 21.3679 7.20273 20.6684 6.8726C20.6688 6.87255 20.6693 6.87244 20.6697 6.87239C20.5791 6.82958 20.424 6.76164 20.2998 6.71274C16.7796 5.32707 14.5612 7.451 13.2174 7.451C12.1885 7.451 10.6008 6.28846 8.91864 6.3202C6.70819 6.35229 4.67216 7.60608 3.53228 9.58452C1.78347 12.6199 2.36019 16.7694 3.72271 20.0032C3.72271 20.0033 3.72266 20.0033 3.72266 20.0033C3.75754 20.086 3.8131 20.2148 3.85941 20.3187C3.85946 20.3186 3.85946 20.3186 3.85951 20.3185C4.25423 21.2049 4.70614 22.015 5.18221 22.7035C6.27538 24.2836 7.57949 26.0636 9.293 25.9982C10.9422 25.9328 11.5657 24.9319 13.5588 24.9319C15.5506 24.9319 16.1124 25.9982 17.8562 25.9664C19.6314 25.9328 20.7555 24.354 21.8412 22.7664C22.7968 21.3715 23.3239 20.0099 23.5352 19.3969C23.5981 19.2142 23.5169 19.0133 23.3442 18.9264Z" fill="#D6D6D8"/>
<path d="M6.22851 22.7038C5.75243 22.0152 5.30053 21.2051 4.90581 20.3187C4.90576 20.3187 4.90576 20.3188 4.90571 20.3189C4.85944 20.215 4.80435 20.0874 4.76895 20.0035C4.76895 20.0035 4.769 20.0035 4.769 20.0034C3.41487 16.7896 2.82352 12.6309 4.57857 9.58474C5.63132 7.75763 7.44847 6.5494 9.46139 6.34988C9.28193 6.32829 9.10089 6.31702 8.91864 6.32042C6.70819 6.35252 4.67216 7.60631 3.53228 9.58474C1.78347 12.6201 2.36019 16.7696 3.72271 20.0034C3.72271 20.0035 3.72265 20.0035 3.72265 20.0035C3.75754 20.0863 3.8131 20.215 3.85941 20.3189C3.85946 20.3188 3.85951 20.3188 3.85951 20.3187C4.25423 21.2051 4.70614 22.0152 5.18216 22.7038C6.27533 24.2838 7.57944 26.0638 9.29295 25.9984C9.46154 25.9917 9.61896 25.9749 9.76867 25.9507C8.33115 25.6591 7.1969 24.1035 6.22851 22.7038Z" fill="#C2C2C4"/>
</g>
<defs>
<clipPath id="clip0">
<rect width="26" height="26" fill="white"/>
</clipPath>
</defs>
</svg>
