<svg width="52" height="52" viewBox="0 0 52 52" fill="none" xmlns="http://www.w3.org/2000/svg">
<path d="M26.2827 0.00209045V51.9979C40.5121 51.8472 52.0002 40.2649 52.0002 26C52.0002 11.735 40.5121 0.152754 26.2827 0.00209045Z" fill="#FFBB54"/>
<path d="M26.2825 0.00209256C26.1883 0.00104628 26.0942 0 26 0C11.6409 0 0 11.6409 0 26C0 40.3591 11.6409 52 26 52C26.0942 52 26.1883 51.999 26.2825 51.9979C38.1996 51.8179 47.8149 40.2472 47.8149 26C47.8149 11.7528 38.1996 0.182052 26.2825 0.00209256Z" fill="#FFD45A"/>
<path d="M36.3058 22.8821L26.1328 35.8821H36.5841C38.3764 33.5981 39.4446 30.7187 39.4446 27.5903V26.0209C39.4446 24.2946 38.0321 22.8821 36.3058 22.8821Z" fill="#B74147"/>
<path d="M15.694 22.8821C13.9677 22.8821 12.5552 24.2946 12.5552 26.0209V27.5903C12.5552 30.7187 13.6234 33.5981 15.4157 35.8821L34.9863 34.1746C35.8265 32.2285 36.3057 29.9821 36.3057 27.5903V26.0212L15.694 22.8821Z" fill="#FF3C1F"/>
<path d="M34.9864 34.1746L26.1328 41.034C30.3755 40.9932 34.1473 38.9874 36.5841 35.8821C36.1017 35.2679 35.5671 34.6956 34.9864 34.1746Z" fill="#FA4087"/>
<path d="M34.9866 34.1745C33.2414 38.2226 29.9352 40.9712 26.133 41.0339C26.0891 41.035 26.0441 41.035 26.0002 41.035C21.7031 41.035 17.8779 39.0199 15.416 35.8821C17.8779 32.7453 21.7031 30.7292 26.0002 30.7292C29.455 30.7292 32.6053 32.0328 34.9866 34.1745Z" fill="#FA71A3"/>
<path d="M33.1671 22.8821L31.5977 27.5903H34.7365C35.5997 27.5903 36.3059 26.8841 36.3059 26.0209V22.8821H33.1671Z" fill="#FFF7DF"/>
<path d="M33.1672 22.8821V26.0209C33.1672 26.8841 32.4609 27.5903 31.5978 27.5903H17.2638C16.4006 27.5903 15.6943 26.8841 15.6943 26.0209V22.8821H33.1672Z" fill="white"/>
<path d="M26.7848 44.9589H25.2154C24.7819 44.9589 24.4307 44.6076 24.4307 44.1742C24.4307 43.7409 24.7819 43.3895 25.2154 43.3895H26.7848C27.2183 43.3895 27.5695 43.7409 27.5695 44.1742C27.5695 44.6076 27.2183 44.9589 26.7848 44.9589Z" fill="#FFBB54"/>
<path d="M34.7364 11.8962C33.8732 11.8962 33.167 12.6024 33.167 13.4656V18.1738C33.167 19.037 33.8732 19.7433 34.7364 19.7433C35.5996 19.7433 36.3058 19.037 36.3058 18.1738V13.4656C36.3058 12.6024 35.5996 11.8962 34.7364 11.8962Z" fill="#474867"/>
<path d="M17.2638 11.8972C16.4006 11.8972 15.6943 12.6034 15.6943 13.4666V18.1749C15.6943 19.038 16.4006 19.7443 17.2638 19.7443C18.1269 19.7443 18.8332 19.038 18.8332 18.1749V13.4666C18.8332 12.6034 18.1269 11.8972 17.2638 11.8972Z" fill="#474867"/>
</svg>
