<svg width="45" height="45" viewBox="0 0 45 45" fill="none" xmlns="http://www.w3.org/2000/svg">
<path d="M3.94239 6.13603C3.5198 5.26249 3.88524 4.2118 4.75878 3.78929C5.04391 3.65138 5.34755 3.5988 5.64242 3.61899C5.92052 3.00073 6.40877 2.47297 7.06672 2.15466C8.55396 1.43509 10.3429 2.05749 11.0625 3.54473C11.2364 3.9042 11.3313 4.28132 11.3551 4.6566C12.0189 4.63448 12.6651 4.99615 12.973 5.6325C13.3896 6.49357 13.0294 7.52925 12.1682 7.94587C11.3862 8.32422 10.4617 8.06026 9.98624 7.36386C9.88635 7.42795 9.78206 7.48729 9.6725 7.5404C8.49672 8.10924 7.13282 7.83878 6.25735 6.96585C5.3903 7.36474 4.35998 6.99895 3.94239 6.13603Z" fill="url(#paint0_linear)"/>
<path d="M4.38438 2.93673C5.19534 2.93673 5.85275 2.27932 5.85275 1.46837C5.85275 0.65741 5.19534 0 4.38438 0C3.57343 0 2.91602 0.65741 2.91602 1.46837C2.91602 2.27932 3.57343 2.93673 4.38438 2.93673Z" fill="url(#paint1_linear)"/>
<path d="M13.1076 14.7783H9.56612C9.06496 14.7783 8.65869 14.372 8.65869 13.8709V8.22203C8.65869 7.72087 9.06496 7.31461 9.56612 7.31461H13.1076C13.6088 7.31461 14.015 7.72087 14.015 8.22203V13.8709C14.0151 14.372 13.6088 14.7783 13.1076 14.7783Z" fill="url(#paint2_linear)"/>
<path d="M11.9856 30.8849H1.41016V44.4567H11.9856V30.8849Z" fill="url(#paint3_linear)"/>
<path d="M12.426 33.793H1.43369C0.983266 33.793 0.660835 33.3581 0.791545 32.927L1.88235 29.3339C1.9682 29.051 2.22892 28.8578 2.52449 28.8578H12.4261V33.793H12.426Z" fill="url(#paint4_linear)"/>
<path d="M43.5354 30.8849H32.96V44.4567H43.5354V30.8849Z" fill="url(#paint5_linear)"/>
<path d="M43.5353 40.901L36.43 33.7955H32.96V44.4565H43.5353V40.901Z" fill="url(#paint6_linear)"/>
<path d="M32.5195 33.793H43.5119C43.9623 33.793 44.2847 33.3581 44.154 32.927L43.0632 29.3339C42.9774 29.051 42.7166 28.8578 42.4211 28.8578H32.5195V33.793Z" fill="url(#paint7_linear)"/>
<path d="M36.4358 16.3768V44.4563H8.51318V16.3768L22.4727 2.69048L36.4358 16.3768Z" fill="url(#paint8_linear)"/>
<path d="M8.51318 16.3768V17.9856L34.9839 44.4563H36.4358V16.3768L22.4727 2.69048L8.51318 16.3768Z" fill="url(#paint9_linear)"/>
<path d="M36.4358 24.863V44.4565H27.6203L8.51318 25.3494V24.863H36.4358Z" fill="url(#paint10_linear)"/>
<path d="M32.1215 44.4565H18.4654L10.9586 36.9497C10.6281 36.7354 10.4082 36.3637 10.4082 35.9419V29.9002C10.4082 29.2383 10.9471 28.6994 11.609 28.6994H15.9648C16.3874 28.6994 16.7592 28.9194 16.9735 29.2498L16.9408 29.2757L32.1215 44.4565Z" fill="url(#paint11_linear)"/>
<path d="M15.9645 36.4388H11.6091C11.3344 36.4388 11.1118 36.2162 11.1118 35.9415V29.9006C11.1118 29.6259 11.3345 29.4033 11.6091 29.4033H15.9645C16.2392 29.4033 16.4618 29.626 16.4618 29.9006V35.9415C16.4619 36.2162 16.2392 36.4388 15.9645 36.4388Z" fill="#503837"/>
<path d="M15.9649 37.1428H11.6094C10.9471 37.1428 10.4082 36.6039 10.4082 35.9416V29.9007C10.4082 29.2384 10.9471 28.6995 11.6094 28.6995H15.9649C16.6272 28.6995 17.1661 29.2384 17.1661 29.9007V35.9416C17.1662 36.6039 16.6273 37.1428 15.9649 37.1428ZM11.8162 35.7349H15.7582V30.1073H11.8162V35.7349Z" fill="white"/>
<path d="M36.4369 31.1914V44.4565H36.0084L28.5017 36.9497C28.1702 36.7354 27.9502 36.3637 27.9502 35.9419V29.9002C27.9502 29.2383 28.4891 28.6994 29.152 28.6994H33.5068C33.9294 28.6994 34.3012 28.9194 34.5155 29.2498L34.5328 29.2633L34.5212 29.2759L36.4369 31.1914Z" fill="url(#paint12_linear)"/>
<path d="M33.507 36.4388H29.1516C28.8769 36.4388 28.6543 36.2162 28.6543 35.9415V29.9006C28.6543 29.6259 28.8769 29.4033 29.1516 29.4033H33.507C33.7817 29.4033 34.0043 29.626 34.0043 29.9006V35.9415C34.0044 36.2162 33.7817 36.4388 33.507 36.4388Z" fill="#503837"/>
<path d="M33.5068 37.1428H29.1514C28.4891 37.1428 27.9502 36.6039 27.9502 35.9416V29.9007C27.9502 29.2384 28.4891 28.6995 29.1514 28.6995H33.5068C34.1692 28.6995 34.7081 29.2384 34.7081 29.9007V35.9416C34.7081 36.6039 34.1692 37.1428 33.5068 37.1428ZM29.358 35.7349H33.3V30.1073H29.358V35.7349Z" fill="white"/>
<path d="M19.5649 44.4561V29.2019C19.5649 28.5291 20.1103 27.9837 20.7832 27.9837H24.1661C24.8389 27.9837 25.3843 28.5291 25.3843 29.2019V44.4561H19.5649Z" fill="#816965"/>
<path d="M26.1051 44.4561H24.664V29.6174C24.664 29.1152 24.2532 28.7043 23.751 28.7043H21.1987C20.6945 28.7043 20.2857 29.113 20.2857 29.6174V44.4561H18.8447V28.6644C18.8447 27.8906 19.472 27.2632 20.2459 27.2632H24.7039C25.4777 27.2632 26.105 27.8906 26.105 28.6644V44.4561H26.1051Z" fill="#503837"/>
<path d="M21.4426 34.3665C21.8055 34.3665 22.0996 34.0723 22.0996 33.7095C22.0996 33.3467 21.8055 33.0525 21.4426 33.0525C21.0798 33.0525 20.7856 33.3467 20.7856 33.7095C20.7856 34.0723 21.0798 34.3665 21.4426 34.3665Z" fill="white"/>
<path d="M36.4366 40.6117H8.51221V44.4559H36.4366V40.6117Z" fill="#654E48"/>
<path d="M8.20659 42.9539C8.20659 43.4845 8.10626 43.9908 7.92296 44.4561H0.283631C0.100337 43.9908 0 43.4845 0 42.9539C0 42.4373 0.0952459 41.9435 0.269673 41.4885C0.859495 39.9453 2.35358 38.8506 4.10338 38.8506C5.85319 38.8506 7.34719 39.9454 7.9371 41.4885C8.11144 41.9435 8.20659 42.4374 8.20659 42.9539Z" fill="url(#paint13_linear)"/>
<path d="M10.8525 43.3665C10.8525 43.7514 10.7797 44.1186 10.6468 44.4562H5.10509C4.97219 44.1187 4.89941 43.7514 4.89941 43.3665C4.89941 42.9918 4.9685 42.6335 5.09509 42.3035C5.52295 41.184 6.60673 40.39 7.87609 40.39C9.14545 40.39 10.2292 41.184 10.6571 42.3035C10.7834 42.6335 10.8525 42.9918 10.8525 43.3665Z" fill="url(#paint14_linear)"/>
<path d="M44.9453 42.705C44.9453 43.3235 44.8283 43.9136 44.6147 44.4561H35.7095C35.496 43.9137 35.3789 43.3235 35.3789 42.705C35.3789 42.1028 35.49 41.5272 35.6933 40.9968C36.3809 39.198 38.1224 37.9218 40.1621 37.9218C42.2018 37.9218 43.9433 39.198 44.6309 40.9968C44.8342 41.5272 44.9453 42.1028 44.9453 42.705Z" fill="url(#paint15_linear)"/>
<path d="M36.4358 20.3937V35.2759L18.4743 17.3136C18.1218 17.1013 17.8848 16.7161 17.8848 16.2755V12.901C17.8848 10.3717 19.9435 8.31396 22.4727 8.31396C23.8422 8.31396 25.0734 8.91853 25.915 9.87292L36.4358 20.3937Z" fill="url(#paint16_linear)"/>
<path d="M34.3894 18.9458H10.9178C10.3581 18.9458 9.90283 19.4011 9.90283 19.9607V24.467H10.6078V19.9607C10.6078 19.7898 10.7469 19.6508 10.9178 19.6508H12.3218V24.4669H13.0268V19.6508H15.1213V24.4669H15.8262V19.6508H17.9207V24.4669H18.6257V19.6508H20.7201V24.4669H21.4251V19.6508H23.5197V24.4669H24.2246V19.6508H26.3191V24.4669H27.0241V19.6508H29.1185V24.4669H29.8235V19.6508H31.918V24.4669H32.623V19.6508H34.389C34.5599 19.6508 34.699 19.7898 34.699 19.9607V24.467H35.404V19.9607C35.4043 19.4011 34.949 18.9458 34.3894 18.9458Z" fill="#654E48"/>
<path d="M37.0148 23.7355V25.9959C37.0148 26.3319 36.7425 26.6042 36.4065 26.6042H8.53941C8.20346 26.6042 7.93115 26.3319 7.93115 25.9959V23.7355C7.93115 23.3995 8.20346 23.1272 8.53941 23.1272H36.4065C36.7425 23.1272 37.0148 23.3995 37.0148 23.7355Z" fill="url(#paint17_linear)"/>
<path d="M41.435 18.8248L23.4055 0.789362C22.8916 0.275474 22.0584 0.275474 21.5445 0.789362L3.51046 18.8233C3.17425 19.1595 3.17425 19.7046 3.51046 20.0408L4.27901 20.8093C4.61522 21.1456 5.16028 21.1456 5.49649 20.8093L22.2299 4.07591C22.3652 3.94064 22.5846 3.94064 22.7198 4.07591L39.4489 20.8107C39.7851 21.147 40.3301 21.147 40.6664 20.8107L41.4349 20.0422C41.7712 19.7061 41.7712 19.161 41.435 18.8248Z" fill="url(#paint18_linear)"/>
<path d="M23.4056 0.789349C23.1487 0.532405 22.8119 0.403976 22.4751 0.403976V3.9746C22.5638 3.9746 22.6524 4.00848 22.7201 4.07608L39.4491 20.8109C39.7853 21.1471 40.3303 21.1471 40.6665 20.8109L41.4351 20.0424C41.7713 19.7061 41.7713 19.1611 41.4351 18.8249L23.4056 0.789349Z" fill="url(#paint19_linear)"/>
<path d="M25.8464 16.7568H19.0989C18.8328 16.7568 18.6172 16.5411 18.6172 16.2751V12.9013C18.6172 10.7719 20.3434 9.04572 22.4728 9.04572C24.6021 9.04572 26.3283 10.7719 26.3283 12.9013V16.2751C26.3282 16.5411 26.1124 16.7568 25.8464 16.7568Z" fill="#654E48"/>
<path d="M22.4728 8.31371C19.9432 8.31371 17.8853 10.3717 17.8853 12.9012V16.2749C17.8853 16.9443 18.4297 17.4887 19.099 17.4887H25.8466C26.5159 17.4887 27.0604 16.9443 27.0604 16.2749V12.9012C27.0603 10.3716 25.0024 8.31371 22.4728 8.31371ZM25.5709 12.5108H23.2049V9.86529C24.4516 10.166 25.4087 11.2163 25.5709 12.5108ZM21.7406 9.86529V12.5108H19.3746C19.5368 11.2163 20.4938 10.166 21.7406 9.86529ZM19.3493 13.975H21.7406V16.0248H19.3493V13.975ZM23.2049 16.0248V13.975H25.5962V16.0248H23.2049Z" fill="white"/>
<defs>
<linearGradient id="paint0_linear" x1="2.24436" y1="2.82019" x2="19.5358" y2="8.83588" gradientUnits="userSpaceOnUse">
<stop stop-color="#E2EDF2"/>
<stop offset="1" stop-color="#9FC7E2"/>
</linearGradient>
<linearGradient id="paint1_linear" x1="3.90807" y1="1.30358" x2="6.45404" y2="2.18961" gradientUnits="userSpaceOnUse">
<stop stop-color="#E2EDF2"/>
<stop offset="1" stop-color="#9FC7E2"/>
</linearGradient>
<linearGradient id="paint2_linear" x1="9.90202" y1="9.61324" x2="11.6787" y2="11.389" gradientUnits="userSpaceOnUse">
<stop stop-color="#816965"/>
<stop offset="1" stop-color="#654E48"/>
</linearGradient>
<linearGradient id="paint3_linear" x1="6.6977" y1="32.6046" x2="6.6977" y2="44.6568" gradientUnits="userSpaceOnUse">
<stop stop-color="#FFE7A5"/>
<stop offset="0.966" stop-color="#FFBF5C"/>
</linearGradient>
<linearGradient id="paint4_linear" x1="6.59397" y1="29.4832" x2="6.59397" y2="33.8666" gradientUnits="userSpaceOnUse">
<stop stop-color="#FF5D00"/>
<stop offset="1" stop-color="#D54003"/>
</linearGradient>
<linearGradient id="paint5_linear" x1="38.2468" y1="32.6046" x2="38.2468" y2="44.6568" gradientUnits="userSpaceOnUse">
<stop stop-color="#FFE7A5"/>
<stop offset="0.966" stop-color="#FFBF5C"/>
</linearGradient>
<linearGradient id="paint6_linear" x1="38" y1="42.0721" x2="27.038" y2="32.3033" gradientUnits="userSpaceOnUse">
<stop stop-color="#FF5D00" stop-opacity="0"/>
<stop offset="1" stop-color="#D54003"/>
</linearGradient>
<linearGradient id="paint7_linear" x1="38.3506" y1="29.4832" x2="38.3506" y2="33.8666" gradientUnits="userSpaceOnUse">
<stop stop-color="#FF5D00"/>
<stop offset="1" stop-color="#D54003"/>
</linearGradient>
<linearGradient id="paint8_linear" x1="22.474" y1="23.8633" x2="22.474" y2="53.4289" gradientUnits="userSpaceOnUse">
<stop stop-color="#FFE7A5"/>
<stop offset="0.966" stop-color="#FFBF5C"/>
<stop offset="1" stop-color="#DB9E36"/>
</linearGradient>
<linearGradient id="paint9_linear" x1="19.4564" y1="14.1642" x2="11.3735" y2="6.08125" gradientUnits="userSpaceOnUse">
<stop stop-color="#FF5D00" stop-opacity="0"/>
<stop offset="1" stop-color="#D54003"/>
</linearGradient>
<linearGradient id="paint10_linear" x1="23.5251" y1="31.6309" x2="20.3622" y2="11.9989" gradientUnits="userSpaceOnUse">
<stop stop-color="#FF5D00" stop-opacity="0"/>
<stop offset="1" stop-color="#D54003"/>
</linearGradient>
<linearGradient id="paint11_linear" x1="19.2267" y1="38.361" x2="6.62988" y2="25.7642" gradientUnits="userSpaceOnUse">
<stop stop-color="#FF5D00" stop-opacity="0"/>
<stop offset="1" stop-color="#D54003"/>
</linearGradient>
<linearGradient id="paint12_linear" x1="34.6993" y1="36.2916" x2="26.634" y2="28.2263" gradientUnits="userSpaceOnUse">
<stop stop-color="#FF5D00" stop-opacity="0"/>
<stop offset="1" stop-color="#D54003"/>
</linearGradient>
<linearGradient id="paint13_linear" x1="1.7892" y1="40.3995" x2="6.8526" y2="45.4624" gradientUnits="userSpaceOnUse">
<stop stop-color="#9EB644"/>
<stop offset="1" stop-color="#738611"/>
</linearGradient>
<linearGradient id="paint14_linear" x1="6.1971" y1="41.5132" x2="9.87022" y2="45.1863" gradientUnits="userSpaceOnUse">
<stop stop-color="#9EB644"/>
<stop offset="1" stop-color="#738611"/>
</linearGradient>
<linearGradient id="paint15_linear" x1="37.464" y1="39.7271" x2="43.3658" y2="45.6298" gradientUnits="userSpaceOnUse">
<stop stop-color="#9EB644"/>
<stop offset="1" stop-color="#738611"/>
</linearGradient>
<linearGradient id="paint16_linear" x1="28.8878" y1="20.3066" x2="15.9746" y2="7.39343" gradientUnits="userSpaceOnUse">
<stop stop-color="#FF5D00" stop-opacity="0"/>
<stop offset="1" stop-color="#D54003"/>
</linearGradient>
<linearGradient id="paint17_linear" x1="22.4725" y1="23.4976" x2="22.4725" y2="28.1102" gradientUnits="userSpaceOnUse">
<stop stop-color="#FF5D00"/>
<stop offset="1" stop-color="#D54003"/>
</linearGradient>
<linearGradient id="paint18_linear" x1="22.4722" y1="12.6034" x2="22.4722" y2="28.2626" gradientUnits="userSpaceOnUse">
<stop stop-color="#FF5D00"/>
<stop offset="1" stop-color="#D54003"/>
</linearGradient>
<linearGradient id="paint19_linear" x1="35.9408" y1="15.3837" x2="26.4761" y2="5.91906" gradientUnits="userSpaceOnUse">
<stop stop-color="#FF5D00" stop-opacity="0"/>
<stop offset="1" stop-color="#D54003"/>
</linearGradient>
</defs>
</svg>
