<svg width="26" height="26" viewBox="0 0 26 26" fill="none" xmlns="http://www.w3.org/2000/svg">
<g clip-path="url(#clip0)">
<path d="M18.4249 13.0001L2.41149 0.57749C1.79831 1.05702 1.38525 1.80193 1.38525 2.69004L1.38525 23.3102C1.38525 24.1983 1.79831 24.9432 2.41149 25.4221L18.4249 13.0001Z" fill="#9DC6FB"/>
<path d="M23.2718 10.6738L19.3971 8.43655L16.001 8.86124L14.8345 12.9999L15.4269 16.9622L19.3971 17.5625L23.2718 15.3259C25.0627 14.292 25.0627 11.7077 23.2718 10.6738Z" fill="#FFE07D"/>
<path d="M19.3969 8.43669L5.41416 0.363845C4.39244 -0.225675 3.22554 -0.0587559 2.41162 0.577381L14.8342 13L19.3969 8.43669Z" fill="#DD5790"/>
<path d="M19.3969 17.5627L14.8342 13L2.41162 25.422C3.22554 26.0589 4.39244 26.2258 5.41416 25.6362L19.3969 17.5627Z" fill="#95D6A4"/>
<path d="M4.41268 2.69C4.41268 2.50952 4.42944 2.33534 4.46184 2.16792L2.41164 0.577549C1.79851 1.05677 1.38525 1.80168 1.38525 2.69L1.38525 23.3102C1.38525 24.1979 1.79856 24.9429 2.41164 25.4221L4.46184 23.8318C4.42939 23.6644 4.41268 23.4901 4.41268 23.3102L4.41268 2.69Z" fill="#80B4FB"/>
<path d="M5.59236 0.466034L5.41447 0.363506C4.39275 -0.225558 3.22564 -0.0586896 2.41162 0.577448L4.41474 2.58057C4.44719 1.74039 4.85105 1.03676 5.43854 0.577448H5.43905C5.48876 0.538753 5.54005 0.501123 5.59236 0.466034Z" fill="#DA387D"/>
<path d="M5.43905 25.422L5.43956 25.4209L5.43849 25.422C4.85049 24.9627 4.44714 24.2585 4.41469 23.4189L2.41162 25.422C3.22559 26.0586 4.39275 26.2255 5.41442 25.6359L5.59231 25.5334C5.54 25.4984 5.48871 25.4607 5.43905 25.422Z" fill="#78C2A4"/>
</g>
<defs>
<clipPath id="clip0">
<rect width="26" height="26" fill="white" transform="matrix(1 0 0 -1 0 26)"/>
</clipPath>
</defs>
</svg>
